<mxfile host="65bd71144e">
    <diagram id="HWN8LB-xHzLTgMJsBf7P" name="Page-1">
        <mxGraphModel dx="1027" dy="550" grid="0" gridSize="10" guides="0" tooltips="1" connect="0" arrows="0" fold="1" page="1" pageScale="1" pageWidth="850" pageHeight="1100" background="#E6E6E6" math="0" shadow="0">
            <root>
                <mxCell id="0"/>
                <mxCell id="1" parent="0"/>
                <mxCell id="2" value="Employee" style="swimlane;fontStyle=1;childLayout=stackLayout;horizontal=1;startSize=26;horizontalStack=0;resizeParent=1;resizeParentMax=0;resizeLast=0;collapsible=1;marginBottom=0;align=center;fontSize=18;labelBackgroundColor=none;swimlaneLine=1;separatorColor=none;connectable=1;allowArrows=1;glass=0;" parent="1" vertex="1">
                    <mxGeometry x="364" y="130" width="160" height="176" as="geometry"/>
                </mxCell>
                <mxCell id="3" value="+ Name&#10;" style="text;strokeColor=none;fillColor=#9E9E9E;spacingLeft=4;spacingRight=4;overflow=hidden;rotatable=0;points=[[0,0.5],[1,0.5]];portConstraint=eastwest;fontSize=15;fontStyle=1;labelBackgroundColor=none;imageAspect=0;" parent="2" vertex="1">
                    <mxGeometry y="26" width="160" height="30" as="geometry"/>
                </mxCell>
                <mxCell id="4" value="+ CPF" style="text;strokeColor=none;fillColor=#9E9E9E;spacingLeft=4;spacingRight=4;overflow=hidden;rotatable=0;points=[[0,0.5],[1,0.5]];portConstraint=eastwest;fontSize=15;fontStyle=1;labelBackgroundColor=none;imageAspect=0;" parent="2" vertex="1">
                    <mxGeometry y="56" width="160" height="30" as="geometry"/>
                </mxCell>
                <object label="+ Wage" placeholders="1" tre="" id="5">
                    <mxCell style="text;strokeColor=none;fillColor=#9E9E9E;spacingLeft=4;spacingRight=4;overflow=hidden;rotatable=0;points=[[0,0.5],[1,0.5]];portConstraint=eastwest;fontSize=15;fontStyle=1;labelBackgroundColor=none;imageAspect=0;" parent="2" vertex="1">
                        <mxGeometry y="86" width="160" height="30" as="geometry"/>
                    </mxCell>
                </object>
                <mxCell id="8" value="+ WageRaise()" style="text;strokeColor=none;fillColor=#9E9E9E;spacingLeft=4;spacingRight=4;overflow=hidden;rotatable=0;points=[[0,0.5],[1,0.5]];portConstraint=eastwest;fontSize=15;fontStyle=1;labelBackgroundColor=none;imageAspect=0;" parent="2" vertex="1">
                    <mxGeometry y="116" width="160" height="30" as="geometry"/>
                </mxCell>
                <mxCell id="7" value="+ GetBonus()" style="text;strokeColor=none;fillColor=#9E9E9E;spacingLeft=4;spacingRight=4;overflow=hidden;rotatable=0;points=[[0,0.5],[1,0.5]];portConstraint=eastwest;fontSize=15;fontStyle=1;labelBackgroundColor=none;imageAspect=0;" parent="2" vertex="1">
                    <mxGeometry y="146" width="160" height="30" as="geometry"/>
                </mxCell>
                <mxCell id="10" value="Designer" style="swimlane;fontStyle=1;childLayout=stackLayout;horizontal=1;startSize=24;horizontalStack=0;resizeParent=1;resizeParentMax=0;resizeLast=0;collapsible=1;marginBottom=0;align=center;fontSize=18;labelBackgroundColor=none;swimlaneLine=1;separatorColor=none;connectable=1;allowArrows=1;glass=0;" parent="1" vertex="1">
                    <mxGeometry x="663" y="142" width="160" height="54" as="geometry"/>
                </mxCell>
                <mxCell id="15" value="" style="text;strokeColor=none;fillColor=#9E9E9E;spacingLeft=4;spacingRight=4;overflow=hidden;rotatable=0;points=[[0,0.5],[1,0.5]];portConstraint=eastwest;fontSize=15;fontStyle=1;labelBackgroundColor=none;imageAspect=0;" parent="10" vertex="1">
                    <mxGeometry y="24" width="160" height="30" as="geometry"/>
                </mxCell>
                <mxCell id="17" value="AccountManager" style="swimlane;fontStyle=1;childLayout=stackLayout;horizontal=1;startSize=24;horizontalStack=0;resizeParent=1;resizeParentMax=0;resizeLast=0;collapsible=1;marginBottom=0;align=center;fontSize=18;labelBackgroundColor=none;swimlaneLine=1;separatorColor=none;connectable=1;allowArrows=1;glass=0;" parent="1" vertex="1">
                    <mxGeometry x="176" y="504" width="160" height="54" as="geometry"/>
                </mxCell>
                <mxCell id="18" value="" style="text;strokeColor=none;fillColor=#9E9E9E;spacingLeft=4;spacingRight=4;overflow=hidden;rotatable=0;points=[[0,0.5],[1,0.5]];portConstraint=eastwest;fontSize=15;fontStyle=1;labelBackgroundColor=none;imageAspect=0;" parent="17" vertex="1">
                    <mxGeometry y="24" width="160" height="30" as="geometry"/>
                </mxCell>
                <mxCell id="20" value="Developer" style="swimlane;fontStyle=1;childLayout=stackLayout;horizontal=1;startSize=24;horizontalStack=0;resizeParent=1;resizeParentMax=0;resizeLast=0;collapsible=1;marginBottom=0;align=center;fontSize=18;labelBackgroundColor=none;swimlaneLine=1;separatorColor=none;connectable=1;allowArrows=1;glass=0;" parent="1" vertex="1">
                    <mxGeometry x="653" y="270" width="160" height="54" as="geometry"/>
                </mxCell>
                <mxCell id="21" value="" style="text;strokeColor=none;fillColor=#9E9E9E;spacingLeft=4;spacingRight=4;overflow=hidden;rotatable=0;points=[[0,0.5],[1,0.5]];portConstraint=eastwest;fontSize=15;fontStyle=1;labelBackgroundColor=none;imageAspect=0;" parent="20" vertex="1">
                    <mxGeometry y="24" width="160" height="30" as="geometry"/>
                </mxCell>
                <mxCell id="22" value="Assistant" style="swimlane;fontStyle=1;childLayout=stackLayout;horizontal=1;startSize=24;horizontalStack=0;resizeParent=1;resizeParentMax=0;resizeLast=0;collapsible=1;marginBottom=0;align=center;fontSize=18;labelBackgroundColor=none;swimlaneLine=1;separatorColor=none;connectable=1;allowArrows=1;glass=0;" parent="1" vertex="1">
                    <mxGeometry x="93" y="202" width="159" height="54" as="geometry"/>
                </mxCell>
                <mxCell id="23" value="" style="text;strokeColor=none;fillColor=#9E9E9E;spacingLeft=4;spacingRight=4;overflow=hidden;rotatable=0;points=[[0,0.5],[1,0.5]];portConstraint=eastwest;fontSize=15;fontStyle=1;labelBackgroundColor=none;imageAspect=0;" parent="22" vertex="1">
                    <mxGeometry y="24" width="159" height="30" as="geometry"/>
                </mxCell>
                <mxCell id="29" value="Director" style="swimlane;fontStyle=1;childLayout=stackLayout;horizontal=1;startSize=24;horizontalStack=0;resizeParent=1;resizeParentMax=0;resizeLast=0;collapsible=1;marginBottom=0;align=center;fontSize=18;labelBackgroundColor=none;swimlaneLine=1;separatorColor=none;connectable=1;allowArrows=1;glass=0;" parent="1" vertex="1">
                    <mxGeometry x="565" y="509" width="160" height="54" as="geometry">
                        <mxRectangle x="641" y="237" width="173" height="26" as="alternateBounds"/>
                    </mxGeometry>
                </mxCell>
                <mxCell id="30" value="" style="text;strokeColor=none;fillColor=#9E9E9E;spacingLeft=4;spacingRight=4;overflow=hidden;rotatable=0;points=[[0,0.5],[1,0.5]];portConstraint=eastwest;fontSize=15;fontStyle=1;labelBackgroundColor=none;imageAspect=0;" parent="29" vertex="1">
                    <mxGeometry y="24" width="160" height="30" as="geometry"/>
                </mxCell>
                <mxCell id="39" value="Authenticable" style="swimlane;fontStyle=1;childLayout=stackLayout;horizontal=1;startSize=38;horizontalStack=0;resizeParent=1;resizeParentMax=0;resizeLast=0;collapsible=1;marginBottom=0;align=center;fontSize=18;labelBackgroundColor=none;swimlaneLine=1;separatorColor=none;connectable=1;allowArrows=1;glass=0;" vertex="1" parent="1">
                    <mxGeometry x="370" y="369" width="160" height="98" as="geometry">
                        <mxRectangle x="641" y="237" width="173" height="26" as="alternateBounds"/>
                    </mxGeometry>
                </mxCell>
                <mxCell id="40" value="+ Password" style="text;strokeColor=none;fillColor=#9E9E9E;spacingLeft=4;spacingRight=4;overflow=hidden;rotatable=0;points=[[0,0.5],[1,0.5]];portConstraint=eastwest;fontSize=15;fontStyle=1;labelBackgroundColor=none;imageAspect=0;" vertex="1" parent="39">
                    <mxGeometry y="38" width="160" height="30" as="geometry"/>
                </mxCell>
                <mxCell id="52" value="+Authenticate(string)" style="text;strokeColor=none;fillColor=#9E9E9E;spacingLeft=4;spacingRight=4;overflow=hidden;rotatable=0;points=[[0,0.5],[1,0.5]];portConstraint=eastwest;fontSize=15;fontStyle=1;labelBackgroundColor=none;imageAspect=0;" vertex="1" parent="39">
                    <mxGeometry y="68" width="160" height="30" as="geometry"/>
                </mxCell>
                <mxCell id="49" value="" style="curved=1;endArrow=classic;html=1;sketch=1;" edge="1" parent="1" source="29" target="39">
                    <mxGeometry width="50" height="50" relative="1" as="geometry">
                        <mxPoint x="659" y="509" as="sourcePoint"/>
                        <mxPoint x="551" y="443" as="targetPoint"/>
                        <Array as="points">
                            <mxPoint x="683" y="493"/>
                            <mxPoint x="633" y="443"/>
                        </Array>
                    </mxGeometry>
                </mxCell>
                <mxCell id="50" value="" style="curved=1;endArrow=classic;html=1;sketch=1;" edge="1" parent="1" source="17" target="39">
                    <mxGeometry width="50" height="50" relative="1" as="geometry">
                        <mxPoint x="334.8604651162791" y="502" as="sourcePoint"/>
                        <mxPoint x="364" y="436" as="targetPoint"/>
                        <Array as="points">
                            <mxPoint x="236" y="477"/>
                            <mxPoint x="299" y="436"/>
                        </Array>
                    </mxGeometry>
                </mxCell>
                <mxCell id="51" value="" style="curved=1;endArrow=classic;html=1;sketch=1;exitX=0.513;exitY=-0.02;exitDx=0;exitDy=0;exitPerimeter=0;entryX=0.456;entryY=0.967;entryDx=0;entryDy=0;entryPerimeter=0;" edge="1" parent="1" source="39" target="7">
                    <mxGeometry width="50" height="50" relative="1" as="geometry">
                        <mxPoint x="226.3571428571429" y="406.62" as="sourcePoint"/>
                        <mxPoint x="380" y="326" as="targetPoint"/>
                        <Array as="points">
                            <mxPoint x="437" y="342"/>
                        </Array>
                    </mxGeometry>
                </mxCell>
                <mxCell id="54" value="" style="curved=1;endArrow=classic;html=1;sketch=1;" edge="1" parent="1" source="10" target="3">
                    <mxGeometry width="50" height="50" relative="1" as="geometry">
                        <mxPoint x="670.8604651162791" y="242" as="sourcePoint"/>
                        <mxPoint x="527" y="176" as="targetPoint"/>
                        <Array as="points">
                            <mxPoint x="591" y="159"/>
                        </Array>
                    </mxGeometry>
                </mxCell>
                <mxCell id="55" value="" style="curved=1;endArrow=classic;html=1;sketch=1;entryX=0.994;entryY=0.433;entryDx=0;entryDy=0;entryPerimeter=0;" edge="1" parent="1" source="20" target="5">
                    <mxGeometry width="50" height="50" relative="1" as="geometry">
                        <mxPoint x="665" y="237" as="sourcePoint"/>
                        <mxPoint x="526" y="242.46938775510205" as="targetPoint"/>
                        <Array as="points">
                            <mxPoint x="593" y="237"/>
                        </Array>
                    </mxGeometry>
                </mxCell>
                <mxCell id="56" value="" style="curved=1;endArrow=classic;html=1;sketch=1;entryX=-0.006;entryY=0.367;entryDx=0;entryDy=0;entryPerimeter=0;" edge="1" parent="1" source="22" target="4">
                    <mxGeometry width="50" height="50" relative="1" as="geometry">
                        <mxPoint x="314.96" y="300.01" as="sourcePoint"/>
                        <mxPoint x="167.99999999999994" y="259" as="targetPoint"/>
                        <Array as="points">
                            <mxPoint x="297" y="197"/>
                        </Array>
                    </mxGeometry>
                </mxCell>
                <mxCell id="59" value="V1.1" style="text;html=1;align=center;verticalAlign=middle;resizable=0;points=[];autosize=1;strokeColor=none;fillColor=none;" vertex="1" parent="1">
                    <mxGeometry x="275" y="8" width="35" height="18" as="geometry"/>
                </mxCell>
            </root>
        </mxGraphModel>
    </diagram>
</mxfile>